<svg xmlns="http://www.w3.org/2000/svg" viewBox="122.2265625 67.77499389648438 330.546875 439.45000076293945"> <svg xmlns="http://www.w3.org/2000/svg" xmlns:xlink="http://www.w3.org/1999/xlink" version="1.1" id="Livello_1" x="192.2265625" y="137.77499389648438" viewBox="876.5999755859375 1217.199951171875 275.4749755859375 332.5001220703125" xml:space="preserve" height="230" width="190.546875" preserveAspectRatio="xMinYMin" enable-background="new 0 0 2000 2000" style="overflow: visible;"><path class="st0" d="M1111.8,1314.6l-97.4-97.4l-97.4,97.4c-26,26-40.4,60.6-40.4,97.4c0,36.8,14.3,71.4,40.4,97.4   c26.9,26.9,62.1,40.3,97.4,40.3c35.3,0,70.6-13.4,97.4-40.3C1165.5,1455.7,1165.5,1368.3,1111.8,1314.6z M931.1,1328.7l73.3-73.3   v273.8c-26.7-2.3-52.9-13.6-73.3-34C885.2,1449.4,885.2,1374.6,931.1,1328.7z M1097.7,1495.3c-20.4,20.4-46.5,31.8-73.3,34v-31.7   l58.2-40.2l-11.4-16.5l-46.8,32.4v-43.9l64.8-46.4l-11.6-16.3l-53.1,38V1353l41.6-28.7l-11.4-16.5l-30.2,20.9v-73.2l73.3,73.3   C1143.6,1374.6,1143.6,1449.4,1097.7,1495.3z" style="fill: #349db5; fill-opacity: 1;"></path><path class="st0" d="M957.4,1456.9c-3.5-7.1-3.4-13.4-3.4-13.4l0,0.1l-20-0.8c-0.5,13.4,7.5,41.8,42.1,53.1l6.2-19   C970.3,1473,961.9,1466.2,957.4,1456.9z" style="fill: #349db5; fill-opacity: 1;"></path></svg> <svg y="399.7749938964844" viewBox="3.450000047683716 15.5 173.4499969482422 37.45000076293945" x="200.7750015258789" height="37.45000076293945" width="173.4499969482422" xmlns="http://www.w3.org/2000/svg" style="overflow: visible;"><g fill="#A6A6A6" fill-opacity="1" style=""><path d="M3.45 17.60L25 17.60L25 23.25L10.45 23.25L10.45 32.20L21.60 32.20L21.60 37.75L10.45 37.75L10.45 52.50L3.45 52.50L3.45 17.60ZM28.15 38.55Q28.15 34.35 29.82 31.10Q31.50 27.85 34.38 26.10Q37.25 24.35 40.80 24.35L40.80 24.35Q43.90 24.35 46.23 25.60Q48.55 26.85 49.95 28.75L49.95 28.75L49.95 24.80L57 24.80L57 52.50L49.95 52.50L49.95 48.45Q48.60 50.40 46.23 51.67Q43.85 52.95 40.75 52.95L40.75 52.95Q37.25 52.95 34.38 51.15Q31.50 49.35 29.82 46.08Q28.15 42.80 28.15 38.55L28.15 38.55ZM49.95 38.65Q49.95 36.10 48.95 34.27Q47.95 32.45 46.25 31.47Q44.55 30.50 42.60 30.50L42.60 30.50Q40.65 30.50 39 31.45Q37.35 32.40 36.33 34.22Q35.30 36.05 35.30 38.55L35.30 38.55Q35.30 41.05 36.33 42.92Q37.35 44.80 39.02 45.80Q40.70 46.80 42.60 46.80L42.60 46.80Q44.55 46.80 46.25 45.83Q47.95 44.85 48.95 43.02Q49.95 41.20 49.95 38.65L49.95 38.65ZM98.25 24.40Q103.35 24.40 106.47 27.52Q109.60 30.65 109.60 36.25L109.60 36.25L109.60 52.50L102.60 52.50L102.60 37.20Q102.60 33.95 100.95 32.22Q99.30 30.50 96.45 30.50L96.45 30.50Q93.60 30.50 91.92 32.22Q90.25 33.95 90.25 37.20L90.25 37.20L90.25 52.50L83.25 52.50L83.25 37.20Q83.25 33.95 81.60 32.22Q79.95 30.50 77.10 30.50L77.10 30.50Q74.20 30.50 72.53 32.22Q70.85 33.95 70.85 37.20L70.85 37.20L70.85 52.50L63.85 52.50L63.85 24.80L70.85 24.80L70.85 28.15Q72.20 26.40 74.33 25.40Q76.45 24.40 79 24.40L79 24.40Q82.25 24.40 84.80 25.77Q87.35 27.15 88.75 29.70L88.75 29.70Q90.10 27.30 92.67 25.85Q95.25 24.40 98.25 24.40L98.25 24.40ZM123.25 28.85Q124.60 26.85 126.98 25.60Q129.35 24.35 132.40 24.35L132.40 24.35Q135.95 24.35 138.83 26.10Q141.70 27.85 143.38 31.07Q145.05 34.30 145.05 38.55L145.05 38.55Q145.05 42.80 143.38 46.08Q141.70 49.35 138.83 51.15Q135.95 52.95 132.40 52.95L132.40 52.95Q129.30 52.95 126.98 51.73Q124.65 50.50 123.25 48.55L123.25 48.55L123.25 52.50L116.25 52.50L116.25 15.50L123.25 15.50L123.25 28.85ZM137.90 38.55Q137.90 36.05 136.88 34.22Q135.85 32.40 134.18 31.45Q132.50 30.50 130.55 30.50L130.55 30.50Q128.65 30.50 126.98 31.47Q125.30 32.45 124.28 34.30Q123.25 36.15 123.25 38.65L123.25 38.65Q123.25 41.15 124.28 43Q125.30 44.85 126.98 45.83Q128.65 46.80 130.55 46.80L130.55 46.80Q132.50 46.80 134.18 45.80Q135.85 44.80 136.88 42.95Q137.90 41.10 137.90 38.55L137.90 38.55ZM162.45 52.95Q158.45 52.95 155.25 51.17Q152.05 49.40 150.23 46.15Q148.40 42.90 148.40 38.65L148.40 38.65Q148.40 34.40 150.28 31.15Q152.15 27.90 155.40 26.13Q158.65 24.35 162.65 24.35L162.65 24.35Q166.65 24.35 169.90 26.13Q173.15 27.90 175.03 31.15Q176.90 34.40 176.90 38.65L176.90 38.65Q176.90 42.90 174.98 46.15Q173.05 49.40 169.78 51.17Q166.50 52.95 162.45 52.95L162.45 52.95ZM162.45 46.85Q164.35 46.85 166.03 45.92Q167.70 45 168.70 43.15Q169.70 41.30 169.70 38.65L169.70 38.65Q169.70 34.70 167.63 32.58Q165.55 30.45 162.55 30.45L162.55 30.45Q159.55 30.45 157.53 32.58Q155.50 34.70 155.50 38.65L155.50 38.65Q155.50 42.60 157.48 44.73Q159.45 46.85 162.45 46.85L162.45 46.85Z" transform="translate(0, 0)"></path></g></svg></svg>